# xmcd
#
# Track frame offsets: 
#        150
#        20890
#        44065
#        66433
#        105783
#        134479
#        191987
#        218424
#        251928
#        296199
#
# Disc length: 4364 seconds
#
# Revision: 0
# Processed by: cddbd v1.5.2PL0 Copyright (c) Steve Scherf et al.
# Submitted via: ExactAudioCopy v1.0b4
#
DISCID=a6110a0a
DTITLE=Little Jimmy King - Live At B.B.Kings, LA
DYEAR=2008
DGENRE=Memphis Blues, Electric Blues, Soul Blues
TTITLE0=Intro - Here We Go Again
TTITLE1=Can't You See What You're Doing To Me
TTITLE2=Crosscut Saw
TTITLE3=Stanging In The Rain
TTITLE4=Somebody
TTITLE5=Red House
TTITLE6=Don't Burn Down The Bridge
TTITLE7=Hand Me Downs
TTITLE8=Hey Joe
TTITLE9=Angel Of Mercy
EXTD=
EXTT0=
EXTT1=
EXTT2=
EXTT3=
EXTT4=
EXTT5=
EXTT6=
EXTT7=
EXTT8=
EXTT9=
PLAYORDER=
